# xmcd
#
# Track frame offsets:
#	150
#	17220
#	37525
#	53032
#	64402
#	82587
#	99202
#	113637
#	129240
#	141285
#	156967
#	177817
#	193490
#	210377
#	227720
#	239615
#	257512
#	274530
#	290520
#	306372
#	321445
#
# Disc length: 4523 seconds
#
# Revision: 0
# Processed by: cddbd v1.4PL0 Copyright (c) Steve Scherf et al.
# Submitted via: dBpowerAMP V4.0
#
DISCID=2011a915
DTITLE=diverse - I love line dancing in the summertime
DYEAR=1900
DGENRE=country
TTITLE0=In the summertime - Mungo jerry
TTITLE1=My baby thinks she's a train - the dean brothers
TTITLE2=Riding alone - Rednex
TTITLE3=Hillbilly rock, hillbilly roll - the sideliners
TTITLE4=Whose bed have your boots been under - Tracey dean
TTITLE5=Why d'ya pick on me - The swamp honkeys
TTITLE6=Cotto-eye joe - Rednex
TTITLE7=American pie - Just luis
TTITLE8=Secret love - The balham alligators
TTITLE9=Boogie yodel cowboy blues - John brosnan
TTITLE10=I can tell by the way you dance - Vern godsdin
TTITLE11=Back seat boogie - Dave sheriff
TTITLE12=Ooh-that beat The balham alligators
TTITLE13=Oasis - Dave sheriff
TTITLE14=Summertime blues - Billy mack
TTITLE15=Chattahoochee - Billy mack
TTITLE16=Ain't goin down - The country dance kings
TTITLE17=The bug - Tracey dean
TTITLE18=American honky tonk bar association - Billy Mack
TTITLE19=Achy breaky heart - Billy mack
TTITLE20=achy breaky heart - jack dean
EXTD=
EXTT0=
EXTT1=
EXTT2=
EXTT3=
EXTT4=
EXTT5=
EXTT6=
EXTT7=
EXTT8=
EXTT9=
EXTT10=
EXTT11=
EXTT12=
EXTT13=
EXTT14=
EXTT15=
EXTT16=
EXTT17=
EXTT18=
EXTT19=
EXTT20=
PLAYORDER=
